<svg xmlns="http://www.w3.org/2000/svg" width="609.0" height="175.0" viewBox="0 0 609.0 175.0" role="img" aria-label="SeamFlow">

<g transform="translate(-2.04,4.19) scale(1.557)"><g fill="none" stroke-linecap="round">
  <rect x="27" y="23" width="42" height="8" rx="4" fill="#C97B5C" stroke="none"/>
  <rect x="27" y="65" width="42" height="8" rx="4" fill="#C97B5C" stroke="none"/>
  <line x1="37" y1="39" x2="59" y2="39" stroke="#2E3A8C" stroke-width="4"/>
  <line x1="37" y1="46" x2="59" y2="46" stroke="#2E3A8C" stroke-width="4"/>
  <line x1="37" y1="53" x2="59" y2="53" stroke="#2E3A8C" stroke-width="4"/>
  <line x1="37" y1="60" x2="59" y2="60" stroke="#2E3A8C" stroke-width="4"/>
  <path d="M59,60 C73,62 74,80 60,82" stroke="#2E3A8C" stroke-width="4"/>
</g></g>
<g transform="translate(150.29,122.49)"><path d="M30.377496337890626 1.0445007324218751Q25.693487548828127 1.0445007324218751 22.69035797119141 -0.2972503662109375Q19.68722839355469 -1.63900146484375 18.025976562500002 -2.980752563476563Q16.364724731445314 -4.3225036621093755 15.742474365234376 -4.3225036621093755Q15.398226928710939 -4.3225036621093755 14.673733520507813 -3.4863784790039065Q13.949240112304688 -2.6502532958984375 13.102622985839844 -1.5502532958984374Q12.256005859375001 -0.45025329589843754 11.503762817382814 0.38587188720703125Q10.751519775390626 1.2219970703125 10.324023437500001 1.2219970703125Q10.06302490234375 1.2219970703125 9.76602783203125 0.9943740844726563Q9.46903076171875 0.7667510986328125 9.36903076171875 0.422503662109375L5.53502197265625 -20.772937011718753Q5.507272338867188 -21.067184448242188 5.523896789550782 -21.23380889892578Q5.5405212402343755 -21.400433349609376 5.6460205078125005 -21.450433349609376Q5.773770141601563 -21.550433349609378 5.940394592285157 -21.447683715820315Q6.1070190429687505 -21.34493408203125 6.2125183105468755 -21.139434814453125Q10.249493408203126 -12.797467041015626 14.132362365722656 -8.178979492187501Q18.015231323242187 -3.5604919433593754 21.81298828125 -1.7244934082031251Q25.610745239257813 0.111505126953125 29.378509521484375 0.111505126953125Q34.862771606445314 0.111505126953125 38.14390411376954 -2.914254760742188Q41.42503662109375 -5.940014648437501 41.42503662109375 -11.724023437500001Q41.42503662109375 -15.268524169921875 39.958158874511724 -18.246653747558597Q38.49128112792969 -21.224783325195315 34.9740234375 -23.780915832519533Q31.456765747070314 -26.33704833984375 25.344500732421878 -28.526556396484377Q17.528509521484377 -31.348806762695315 12.856765747070312 -34.69017791748047Q8.18502197265625 -38.031549072265626 6.1102752685546875 -42.08104248046875Q4.035528564453125 -46.13053588867188 4.035528564453125 -51.14652709960938Q4.035528564453125 -57.05151977539063 7.007272338867188 -61.52326354980469Q9.97901611328125 -65.99500732421875 15.155752563476563 -68.49750366210938Q20.332489013671875 -71.0 26.95296630859375 -71.0Q31.231729125976564 -71.0 34.009985351562506 -69.94687042236328Q36.78824157714844 -68.89374084472657 38.40224304199219 -67.84061126708986Q40.01624450683594 -66.78748168945313 40.75499267578125 -66.78748168945313Q41.393487548828126 -66.78748168945313 42.628726196289065 -67.8849853515625Q43.863964843750004 -68.98248901367188 45.049203491210946 -70.07999267578126Q46.23444213867188 -71.17749633789063 46.72843627929688 -71.17749633789063Q46.93943481445313 -71.17749633789063 47.13930816650391 -71.04149780273437Q47.33918151855469 -70.90549926757812 47.41693115234375 -70.54450073242188L52.70542602539063 -49.336541748046876Q52.76092529296875 -49.064544677734375 52.74155120849609 -48.91179504394532Q52.72217712402344 -48.759045410156254 52.59442749023438 -48.65904541015625Q52.488928222656256 -48.609045410156256 52.322303771972656 -48.70066986083985Q52.155679321289064 -48.79229431152344 52.027929687500006 -48.970043945312504Q47.685708618164064 -57.21827087402344 43.70584259033203 -61.80376281738282Q39.7259765625 -66.38925476074219 35.797846984863284 -68.22812957763672Q31.869717407226563 -70.06700439453125 27.729956054687502 -70.06700439453125Q22.389434814453125 -70.06700439453125 18.924420166015626 -66.65524597167969Q15.459405517578126 -63.24348754882813 15.459405517578126 -57.19746704101563Q15.459405517578126 -53.53071594238281 16.870783996582034 -50.466461181640625Q18.282162475585938 -47.40220642089844 21.649546813964847 -44.81832427978516Q25.01693115234375 -42.23444213867188 30.88494873046875 -40.05043334960938Q39.05643920898438 -37.09493408203125 43.755932617187504 -33.767311096191406Q48.45542602539063 -30.439688110351565 50.43017272949219 -26.573443603515628Q52.404919433593754 -22.707199096679688 52.404919433593754 -18.052459716796875Q52.404919433593754 -12.719970703125 49.797303771972665 -8.390104675292969Q47.18968811035157 -4.060238647460937 42.26045532226563 -1.507868957519531Q37.33122253417969 1.0445007324218751 30.377496337890626 1.0445007324218751ZM97.78266906738281 -25.957019042968753Q97.78266906738281 -25.5460205078125 97.51329498291017 -25.285021972656253Q97.24392089843751 -25.024023437500002 96.69417419433594 -25.024023437500002H65.75018005371095V-25.868017578125002H85.74678039550781Q86.55777893066407 -25.868017578125002 86.55777893066407 -26.790014648437502Q86.55777893066407 -35.549493408203126 84.12089385986329 -39.790991210937506Q81.6840087890625 -44.03248901367188 78.15423278808595 -44.03248901367188Q75.17995605468751 -44.03248901367188 73.02868957519533 -42.05122985839844Q70.87742309570314 -40.069970703125 69.69629058837891 -36.05821228027344Q68.5151580810547 -32.046453857421874 68.5151580810547 -25.985455322265626Q68.5151580810547 -15.679956054687501 72.85428619384766 -10.487698364257813Q77.19341430664063 -5.295440673828125 84.18241577148439 -5.295440673828125Q89.30965881347657 -5.295440673828125 92.87366027832033 -8.170567321777344Q96.43766174316407 -11.045693969726564 96.92716979980469 -15.962698364257813Q96.94942016601564 -16.168197631835938 97.04104461669922 -16.24319763183594Q97.13266906738282 -16.31819763183594 97.18266906738282 -16.31819763183594Q97.31041870117188 -16.31819763183594 97.41316833496094 -16.22932281494141Q97.51591796875002 -16.140447998046877 97.49366760253906 -15.862698364257813Q97.18216247558595 -11.030462646484375 94.64091796875002 -7.217474365234375Q92.09967346191407 -3.4044860839843754 87.95068664550782 -1.2022430419921877Q83.80169982910157 1.0 78.6419677734375 1.0Q72.53172912597657 1.0 67.90473937988281 -1.7219970703125003Q63.27774963378907 -4.4439941406250005 60.67825622558594 -9.404866027832032Q58.07876281738282 -14.365737915039062 58.07876281738282 -20.99898681640625Q58.07876281738282 -28.0539794921875 60.72838287353516 -33.41785430908203Q63.378002929687504 -38.78172912597657 68.20224304199219 -41.80135650634766Q73.02648315429688 -44.82098388671875 79.50871887207032 -44.82098388671875Q85.07970275878907 -44.82098388671875 89.17606658935547 -42.37136383056641Q93.27243041992188 -39.92174377441407 95.52754974365234 -35.66125183105469Q97.78266906738281 -31.400759887695315 97.78266906738281 -25.957019042968753ZM127.5732635498047 -4.627749633789063V-5.0607452392578125L127.05151977539063 -4.58900146484375V-36.327423095703125Q127.05151977539063 -40.107705688476564 125.50350952148438 -42.125596618652345Q123.95549926757813 -44.143487548828126 121.00347290039063 -44.143487548828126Q117.70144653320314 -44.143487548828126 116.10068664550784 -42.51497802734375Q114.49992675781252 -40.886468505859376 114.49992675781252 -38.90846557617188V-34.987988281250004Q114.49992675781252 -32.59475402832032 112.82881622314454 -30.970893859863285Q111.15770568847657 -29.347033691406253 108.54848022460939 -29.347033691406253Q106.68849487304689 -29.347033691406253 105.46975402832032 -30.496527099609377Q104.25101318359376 -31.6460205078125 104.25101318359376 -33.956005859375004Q104.25101318359376 -36.550253295898436 106.30613250732424 -39.05262298583985Q108.3612518310547 -41.55499267578125 112.40198974609376 -43.18798828125Q116.44272766113282 -44.82098388671875 122.3412078857422 -44.82098388671875Q130.40593261718752 -44.82098388671875 134.37991943359378 -41.41023864746094Q138.35390625000002 -37.99949340820313 138.35390625000002 -31.800506591796875V-5.72098388671875Q138.35390625000002 -3.8979736328125 138.97903289794925 -3.0977203369140627Q139.60415954589845 -2.2974670410156253 140.53216247558595 -2.2974670410156253Q141.41566467285156 -2.2974670410156253 142.1295394897461 -2.8502166748046878Q142.84341430664062 -3.4029663085937503 142.99891357421876 -4.641461181640625Q143.02666320800782 -4.824710083007813 143.10166320800784 -4.8885848999023445Q143.17666320800782 -4.952459716796875 143.2544128417969 -4.952459716796875Q143.38216247558594 -4.952459716796875 143.434912109375 -4.8885848999023445Q143.48766174316407 -4.824710083007813 143.48766174316407 -4.641461181640625Q143.48766174316407 -3.7362152099609376 142.65754241943358 -2.43697509765625Q141.82742309570312 -1.1377349853515626 139.97018737792968 -0.12449340820312504Q138.11295166015626 0.8887481689453125 135.01497802734377 0.8887481689453125Q131.15 0.8887481689453125 129.36163177490235 -0.6527496337890626Q127.5732635498047 -2.1942474365234377 127.5732635498047 -4.627749633789063ZM101.76251831054688 -9.688494873046876Q101.76251831054688 -15.048733520507813 106.20900878906251 -18.351356506347656Q110.65549926757814 -21.653979492187503 120.19146118164063 -21.653979492187503Q123.37597656250001 -21.653979492187503 125.41861419677736 -21.03435211181641Q127.4612518310547 -20.414724731445315 129.20651245117188 -19.497973632812503L128.84001464843752 -19.142474365234374Q127.08375549316408 -19.9759765625 125.2438674926758 -20.448480224609376Q123.40397949218752 -20.92098388671875 121.11396484375001 -20.92098388671875Q117.20068664550783 -20.92098388671875 115.11079864501954 -18.398480224609376Q113.02091064453126 -15.8759765625 113.02091064453126 -11.342980957031251Q113.02091064453126 -6.954232788085938 115.02729644775391 -4.631602478027344Q117.03368225097657 -2.3089721679687503 120.26845092773439 -2.3089721679687503Q122.44196777343751 -2.3089721679687503 124.56535797119142 -3.323100280761719Q126.68874816894532 -4.337228393554688 128.10075988769532 -6.232489013671875L128.6227569580078 -5.921490478515626Q126.44475402832032 -2.605245971679688 122.62537994384766 -0.8471237182617188Q118.806005859375 0.9109985351562501 114.39500732421877 0.9109985351562501Q108.77850952148438 0.9109985351562501 105.27051391601563 -2.055499267578125Q101.76251831054688 -5.0219970703125005 101.76251831054688 -9.688494873046876ZM162.0819091796875 -44.042980957031254V-2.65499267578125Q162.0819091796875 -2.093994140625 162.40965881347657 -1.6663711547851563Q162.73740844726564 -1.2387481689453126 163.33740844726563 -1.1109985351562501L166.171923828125 -0.6664978027343751Q166.62742309570314 -0.61099853515625 166.62742309570314 -0.31099853515625003Q166.62742309570314 0.0 166.16092529296876 0.0H146.62250366210938Q146.43375549316406 0.0 146.31713104248047 -0.1027496337890625Q146.20050659179688 -0.205499267578125 146.20050659179688 -0.31099853515625003Q146.20050659179688 -0.41649780273437503 146.34488067626955 -0.5219970703125001Q146.4892547607422 -0.6274963378906251 146.72250366210938 -0.677496337890625L149.63502197265626 -1.166497802734375Q150.29052124023437 -1.2942474365234375 150.56277160644532 -1.652496337890625Q150.83502197265625 -2.0107452392578127 150.83502197265625 -2.4994934082031253V-39.17850952148438Q150.83502197265625 -39.495007324218754 150.70452270507812 -39.703256225585946Q150.5740234375 -39.91150512695313 150.21302490234376 -39.91150512695313H146.6780029296875Q146.5447540283203 -39.91150512695313 146.42812957763672 -40.01425476074219Q146.31150512695314 -40.11700439453125 146.31150512695314 -40.222503662109375Q146.31150512695314 -40.37250366210938 146.42812957763672 -40.478002929687506Q146.5447540283203 -40.58350219726563 146.7780029296875 -40.63350219726563L160.61591796875 -44.50947875976563Q160.97691650390624 -44.63722839355469 161.17404022216795 -44.65110321044922Q161.37116394042968 -44.66497802734375 161.559912109375 -44.66497802734375Q161.84866027832032 -44.66497802734375 161.9652847290039 -44.470603942871094Q162.0819091796875 -44.27622985839844 162.0819091796875 -44.042980957031254ZM161.12691650390624 -34.34500732421875 160.64942016601563 -34.76700439453125 162.3714172363281 -36.38900146484375Q167.41541137695313 -41.13299560546875 171.46727447509767 -42.95473937988281Q175.51913757324218 -44.776483154296876 179.0133850097656 -44.776483154296876Q183.9471405029297 -44.776483154296876 187.09752044677737 -41.720603942871094Q190.247900390625 -38.66472473144532 190.247900390625 -32.16447143554688V-2.633502197265625Q190.247900390625 -1.944500732421875 190.6064025878906 -1.5443740844726563Q190.96490478515625 -1.1442474365234376 191.6374084472656 -1.0219970703125L193.72742309570313 -0.677496337890625Q194.1939208984375 -0.566497802734375 194.1939208984375 -0.31099853515625003Q194.1939208984375 0.0 193.61642456054688 0.0H174.93248901367187Q174.53248901367186 0.0 174.53248901367186 -0.31099853515625003Q174.53248901367186 -0.61099853515625 175.03248901367186 -0.6664978027343751L177.62301025390624 -1.055499267578125Q178.56751098632813 -1.26099853515625 178.8675109863281 -1.8553726196289064Q179.16751098632812 -2.4497467041015626 179.16751098632812 -3.2439941406250004V-30.965484619140625Q179.16751098632812 -35.306512451171876 177.03874816894532 -37.56002197265625Q174.9099853515625 -39.813531494140626 171.56396484375 -39.813531494140626Q169.2299560546875 -39.813531494140626 167.11231842041016 -38.90477600097657Q164.99468078613282 -37.9960205078125 162.7934143066406 -35.911505126953124ZM189.0146514892578 -34.34500732421875 188.5371551513672 -34.76700439453125 190.0926544189453 -36.55549926757813Q193.959912109375 -40.89974670410157 197.4342788696289 -42.83811492919922Q200.9086456298828 -44.776483154296876 204.6246368408203 -44.776483154296876Q209.235888671875 -44.776483154296876 212.20500946044922 -41.720603942871094Q215.17413024902345 -38.66472473144532 216.00213317871095 -32.10897216796875L219.7803894042969 -2.744500732421875Q219.88038940429686 -1.9722503662109376 220.24439086914063 -1.5332489013671875Q220.6083923339844 -1.0942474365234376 221.28089599609376 -0.966497802734375L223.31541137695314 -0.6219970703125001Q223.52091064453126 -0.5942474365234375 223.6236602783203 -0.516497802734375Q223.72640991210938 -0.43874816894531254 223.72640991210938 -0.31099853515625003Q223.72640991210938 -0.1777496337890625 223.6236602783203 -0.08887481689453125Q223.52091064453126 0.0 223.31541137695314 0.0H203.96548461914062Q203.56548461914062 0.0 203.56548461914062 -0.31099853515625003Q203.56548461914062 -0.566497802734375 204.06548461914062 -0.6664978027343751L206.656005859375 -1.055499267578125Q207.6005065917969 -1.2387481689453126 207.95050659179688 -1.8719970703125002Q208.30050659179688 -2.5052459716796878 208.20050659179688 -3.3549926757812503L204.92174377441407 -30.965484619140625Q204.36573791503906 -35.306512451171876 202.6318557739258 -37.56002197265625Q200.8979736328125 -39.813531494140626 197.78570861816405 -39.813531494140626Q195.895947265625 -39.813531494140626 194.14493408203126 -38.88527526855469Q192.3939208984375 -37.95701904296875 190.5146514892578 -36.0780029296875ZM267.24992675781255 -70.0Q268.34417419433595 -70.0 269.2745468139649 -70.34175109863281Q270.2049194335938 -70.68350219726562 270.80479278564457 -71.02525329589844Q271.40466613769536 -71.36700439453125 271.5824157714844 -71.36700439453125Q271.7101654052735 -71.36700439453125 271.799040222168 -71.20875549316406Q271.88791503906253 -71.05050659179688 272.0379150390625 -70.38950805664062L276.40390625000003 -52.87156372070313Q276.4816558837891 -52.555065917968754 276.42890625 -52.42456665039063Q276.37615661621095 -52.2940673828125 276.2484069824219 -52.23856811523438Q276.1429077148438 -52.210818481445315 276.02628326416016 -52.26356811523438Q275.9096588134766 -52.31631774902344 275.7264099121094 -52.54956665039063Q272.15068664550785 -58.89779357910157 269.15495605468755 -62.49953002929688Q266.1592254638672 -66.1012664794922 263.32424011230466 -67.58413543701172Q260.4892547607422 -69.06700439453125 257.36801757812503 -69.06700439453125H246.87988281250003V-2.6774963378906254Q246.87988281250003 -2.0774963378906253 247.46875762939456 -1.7553726196289063Q248.0576324462891 -1.4332489013671876 249.2243835449219 -1.31099853515625L255.2363952636719 -0.677496337890625Q255.55289306640628 -0.6497467041015625 255.6833923339844 -0.5719970703125Q255.81389160156252 -0.4942474365234375 255.81389160156252 -0.31099853515625003Q255.81389160156252 -0.205499267578125 255.69726715087893 -0.1027496337890625Q255.58064270019534 0.0 255.34739379882814 0.0H227.5225036621094Q227.2892547607422 0.0 227.17263031005862 -0.1027496337890625Q227.05600585937503 -0.205499267578125 227.05600585937503 -0.31099853515625003Q227.05600585937503 -0.5942474365234375 227.63350219726564 -0.677496337890625L231.81302490234378 -1.31099853515625Q232.78502197265627 -1.4664978027343751 233.2487701416016 -1.7719970703125Q233.7125183105469 -2.0774963378906253 233.7125183105469 -2.6774963378906254V-67.32250366210938Q233.7125183105469 -67.92250366210938 233.2487701416016 -68.23912811279297Q232.78502197265627 -68.55575256347656 231.81302490234378 -68.68900146484376L227.63350219726564 -69.32250366210938Q227.05600585937503 -69.40575256347657 227.05600585937503 -69.68900146484376Q227.05600585937503 -69.81675109863282 227.17263031005862 -69.90837554931642Q227.2892547607422 -70.0 227.5225036621094 -70.0ZM243.52590332031252 -35.42098388671875H256.77546997070317Q261.06870422363284 -35.42098388671875 263.19857025146484 -37.25672912597656Q265.3284362792969 -39.09247436523438 265.67192382812505 -44.007958984375Q265.72742309570316 -44.29670715332031 265.80792236328125 -44.385581970214844Q265.8884216308594 -44.474456787109375 265.9939208984375 -44.474456787109375Q266.35491943359375 -44.518957519531256 266.5049194335938 -43.918957519531254L270.54942016601564 -26.911505126953127Q270.64942016601566 -26.656005859375 270.58554534912116 -26.500506591796878Q270.5216705322266 -26.345007324218752 270.3939208984375 -26.289508056640628Q270.2884216308594 -26.261758422851564 270.1579223632813 -26.28125915527344Q270.02742309570317 -26.300759887695314 269.8164245605469 -26.489508056640627Q267.6284362792969 -29.6 265.9345687866211 -31.34412078857422Q264.24070129394534 -33.08824157714844 262.4272064208985 -33.788114929199224Q260.6137115478516 -34.487988281250004 258.0529663085938 -34.487988281250004H243.52590332031252ZM295.28190917968755 -73.50947875976563V-2.7104919433593753Q295.28190917968755 -2.0662445068359374 295.568034362793 -1.6802459716796876Q295.8541595458985 -1.2942474365234375 296.48190917968753 -1.166497802734375L299.3164245605469 -0.6942474365234376Q299.62192382812503 -0.6664978027343751 299.7246734619141 -0.5637481689453125Q299.8274230957032 -0.46099853515625 299.8274230957032 -0.31099853515625003Q299.8274230957032 -0.1777496337890625 299.7246734619141 -0.08887481689453125Q299.62192382812503 0.0 299.41642456054694 0.0H279.7670043945313Q279.63375549316413 0.0 279.5171310424805 -0.08887481689453125Q279.4005065917969 -0.1777496337890625 279.4005065917969 -0.31099853515625003Q279.4005065917969 -0.43874816894531254 279.5477569580079 -0.5637481689453125Q279.6950073242188 -0.6887481689453125 280.0450073242188 -0.7387481689453126L282.8350219726563 -1.166497802734375Q283.49052124023444 -1.2942474365234375 283.76277160644537 -1.6802459716796876Q284.0350219726563 -2.0662445068359374 284.0350219726563 -2.6659912109375004V-68.70050659179688Q284.0350219726563 -68.98925476074218 283.89064788818365 -69.15587921142578Q283.746273803711 -69.32250366210938 283.3852752685547 -69.32250366210938H279.9890014648438Q279.77250366210944 -69.32250366210938 279.66975402832037 -69.42525329589844Q279.5670043945313 -69.5280029296875 279.5670043945313 -69.66125183105468Q279.5670043945313 -69.83900146484375 279.6836288452149 -69.91675109863282Q279.8002532958985 -69.99450073242188 279.97800292968753 -70.04450073242188L293.788168334961 -73.89272766113281Q294.2324157714844 -74.02047729492188 294.4017898559571 -74.04822692871093Q294.57116394042976 -74.0759765625 294.759912109375 -74.0759765625Q295.0209106445313 -74.0759765625 295.15140991210944 -73.90935211181642Q295.28190917968755 -73.74272766113282 295.28190917968755 -73.50947875976563ZM326.2312225341798 -44.776483154296876Q332.7582122802735 -44.776483154296876 337.8104553222657 -41.84323425292969Q342.8626983642579 -38.909985351562504 345.76244506835945 -33.70736236572266Q348.66219177246103 -28.504739379882814 348.66219177246103 -21.710491943359376Q348.66219177246103 -14.999493408203126 345.6930709838868 -9.885745239257814Q342.72395019531257 -4.7719970703125005 337.54120788574227 -1.8859985351562503Q332.35846557617197 1.0 325.65372619628914 1.0Q319.1267364501954 1.0 314.0967437744141 -1.8721237182617188Q309.0667510986329 -4.7442474365234375 306.21150512695317 -9.857995605468751Q303.3562591552735 -14.971743774414064 303.3562591552735 -21.710491943359376Q303.3562591552735 -28.443740844726562 306.2752532958985 -33.63523864746094Q309.1942474365235 -38.82673645019531 314.35748901367197 -41.80160980224609Q319.5207305908204 -44.776483154296876 326.2312225341798 -44.776483154296876ZM328.6584655761719 0.1780029296875Q331.88248901367194 -0.116497802734375 333.9812591552735 -2.8333755493164063Q336.08002929687507 -5.550253295898438 336.8421676635743 -10.611378479003907Q337.6043060302735 -15.672503662109376 336.77131042480477 -22.94424743652344Q335.93831481933603 -30.282742309570313 334.07930603027353 -35.05761566162109Q332.22029724121103 -39.832489013671875 329.51327819824223 -42.046363830566406Q326.8062591552735 -44.26023864746094 323.3987335205079 -43.93798828125Q320.04670715332037 -43.61573791503906 317.95906219482424 -40.84323425292969Q315.87141723632817 -38.07073059082031 315.2037796020509 -33.02622985839844Q314.5361419677735 -27.981729125976564 315.34138793945317 -20.798986816406252Q316.17438354492197 -13.638494873046875 318.06401824951183 -8.852496337890624Q319.95365295410164 -4.066497802734375 322.6717971801759 -1.7969970703125Q325.38994140625005 0.472503662109375 328.6584655761719 0.1780029296875ZM373.4064392089844 0.0H368.8937408447266Q368.5104919433594 0.0 368.28836822509766 -0.1527496337890625Q368.066244506836 -0.305499267578125 367.9384948730469 -0.6887481689453125L354.5892547607422 -41.02098388671875Q354.3225036621094 -41.893487548828126 353.8417510986328 -42.26573791503907Q353.3609985351563 -42.63798828125 352.54399414062505 -42.76573791503907L350.4882415771485 -43.12673645019532Q350.2494934082032 -43.18223571777344 350.15786895751955 -43.27111053466797Q350.066244506836 -43.3599853515625 350.066244506836 -43.465484619140625Q350.066244506836 -43.64873352050782 350.1717437744141 -43.712608337402344Q350.2772430419922 -43.776483154296876 350.43274230957036 -43.776483154296876H371.4588989257813Q371.66439819335943 -43.776483154296876 371.7671478271485 -43.70148315429688Q371.8698974609375 -43.62648315429688 371.8698974609375 -43.44323425292969Q371.8698974609375 -43.33773498535157 371.7671478271485 -43.259985351562506Q371.66439819335943 -43.18223571777344 371.38114929199224 -43.104486083984376L368.714144897461 -42.676736450195314Q367.258139038086 -42.45448608398438 366.9080123901367 -41.66273498535156Q366.5578857421875 -40.870983886718754 366.9746368408204 -39.5539794921875L376.63190917968757 -9.659658813476563L374.306185913086 -3.7099853515625L385.3404479980469 -39.12301025390625L386.15669250488287 -38.689508056640626L374.26168518066413 -0.5887481689453126Q374.18393554687503 -0.305499267578125 373.95068664550786 -0.1527496337890625Q373.7174377441407 0.0 373.4064392089844 0.0ZM401.4481536865235 0.0H396.91320495605476Q396.5744567871094 0.0 396.3300827026368 -0.18612518310546877Q396.0857086181641 -0.37225036621093754 395.95795898437507 -0.755499267578125L382.86971740722663 -40.70947875976563Q382.5474670410157 -41.74848022460938 382.11396484375007 -42.20973205566406Q381.68046264648444 -42.67098388671875 381.0634582519532 -42.76548461914063L379.4349487304688 -43.08223571777344Q379.12944946289065 -43.159985351562504 379.00444946289065 -43.248860168457036Q378.87944946289065 -43.33773498535157 378.87944946289065 -43.465484619140625Q378.87944946289065 -43.776483154296876 379.29044799804694 -43.776483154296876H400.02734985351566Q400.4605987548829 -43.776483154296876 400.4605987548829 -43.44323425292969Q400.4605987548829 -43.315484619140626 400.3578491210938 -43.226609802246095Q400.25509948730473 -43.137734985351564 399.9496002197266 -43.0599853515625L396.8655914306641 -42.41548461914063Q395.31034545898444 -42.104486083984376 395.0048461914063 -41.51548461914062Q394.69934692382816 -40.926483154296875 395.0493469238282 -39.84323425292969L404.7681243896485 -9.381655883789064L402.2088989257813 -3.220477294921875L412.74265441894534 -37.120477294921876Q413.5206573486329 -39.5599853515625 412.91515808105476 -40.94336090087891Q412.30965881347663 -42.32673645019531 410.39265441894537 -42.65448608398438L407.89189453125005 -43.104486083984376Q407.60864562988286 -43.18223571777344 407.5058959960938 -43.259985351562506Q407.4031463623047 -43.33773498535157 407.4031463623047 -43.465484619140625Q407.4031463623047 -43.64873352050782 407.50864562988284 -43.712608337402344Q407.61414489746096 -43.776483154296876 407.79189453125 -43.776483154296876H419.15915222167973Q419.40915222167973 -43.776483154296876 419.5119018554688 -43.70148315429688Q419.6146514892579 -43.62648315429688 419.6146514892579 -43.44323425292969Q419.6146514892579 -43.315484619140626 419.5119018554688 -43.226609802246095Q419.40915222167973 -43.137734985351564 419.12590332031255 -43.0599853515625L417.93140258789066 -42.65448608398438Q416.54790039062505 -42.176736450195314 415.47577667236334 -40.765611267089845Q414.40365295410163 -39.354486083984376 413.670150756836 -36.998480224609374L402.34790039062506 -0.6777496337890625Q402.24790039062503 -0.3277496337890625 402.01465148925786 -0.16387481689453126Q401.7814025878907 0.0 401.4481536865235 0.0Z" fill="#1A1714"/></g>
</svg>