<svg xmlns="http://www.w3.org/2000/svg" width="560" height="338.1" viewBox="0 0 560 338.1" role="img" aria-label="SeamFlow">

<g transform="translate(189.88,3.75) scale(1.75)"><g fill="none" stroke-linecap="round">
  <rect x="27" y="23" width="42" height="8" rx="4" fill="#C97B5C" stroke="none"/>
  <rect x="27" y="65" width="42" height="8" rx="4" fill="#C97B5C" stroke="none"/>
  <line x1="37" y1="39" x2="59" y2="39" stroke="#2E3A8C" stroke-width="4"/>
  <line x1="37" y1="46" x2="59" y2="46" stroke="#2E3A8C" stroke-width="4"/>
  <line x1="37" y1="53" x2="59" y2="53" stroke="#2E3A8C" stroke-width="4"/>
  <line x1="37" y1="60" x2="59" y2="60" stroke="#2E3A8C" stroke-width="4"/>
  <path d="M59,60 C73,62 74,80 60,82" stroke="#2E3A8C" stroke-width="4"/>
</g></g>
<g transform="translate(99.96,244.95)"><path d="M26.124646850585936 0.8982706298828125Q22.096399291992185 0.8982706298828125 19.51370785522461 -0.25563531494140623Q16.93101641845703 -1.409541259765625 15.502339843749999 -2.5634472045898438Q14.073663269042967 -3.717353149414062 13.53852795410156 -3.717353149414062Q13.242475158691406 -3.717353149414062 12.619410827636717 -2.998285491943359Q11.99634649658203 -2.279217834472656 11.268255767822264 -1.3332178344726562Q10.540165039062499 -0.38721783447265623 9.893236022949218 0.3318498229980469Q9.246307006835936 1.05091748046875 8.87866015625 1.05091748046875Q8.654201416015624 1.05091748046875 8.398783935546874 0.8551617126464843Q8.143366455078125 0.6594059448242187 8.057366455078125 0.3633531494140625L4.760118896484375 -17.864725830078125Q4.736254211425781 -18.11777862548828 4.750551239013671 -18.26107565307617Q4.764848266601562 -18.40437268066406 4.85557763671875 -18.44737268066406Q4.965442321777344 -18.533372680664062 5.1087393493652336 -18.445007995605465Q5.252036376953124 -18.356643310546872 5.342765747070312 -18.179913940429685Q8.814564331054687 -11.005821655273436 12.153831634521485 -7.033922363281249Q15.49309893798828 -3.062023071289062 18.759169921875 -1.4830643310546874Q22.025240905761716 0.09589440917968749 25.26551818847656 0.09589440917968749Q29.981983581542966 0.09589440917968749 32.8037575378418 -2.5062590942382807Q35.625531494140624 -5.108412597656249 35.625531494140624 -10.082660156249998Q35.625531494140624 -13.130930786132812 34.36401663208008 -15.69212222290039Q33.10250177001953 -18.253313659667967 30.077660156249998 -20.451587615966794Q27.052818542480466 -22.649861572265625 21.796270629882812 -24.53283850097656Q15.074518188476562 -26.959973815917966 11.056818542480467 -29.833553009033203Q7.039118896484374 -32.707132202148436 5.254836730957031 -36.18969653320312Q3.4705545654296874 -39.67226086425781 3.4705545654296874 -43.98601330566406Q3.4705545654296874 -49.06430700683593 6.026254211425781 -52.910006652832024Q8.581953857421874 -56.75570629882812 13.033947204589843 -58.90785314941406Q17.48594055175781 -61.059999999999995 23.179551025390623 -61.059999999999995Q26.85928704833984 -61.059999999999995 29.248587402343745 -60.15430856323242Q31.637887756347652 -59.248617126464836 33.02592901611328 -58.34292568969726Q34.4139702758789 -57.437234252929684 35.04929370117187 -57.437234252929684Q35.59839929199219 -57.437234252929684 36.660704528808594 -58.381087402343745Q37.723009765624994 -59.324940551757805 38.7423150024414 -60.26879370117187Q39.76162023925781 -61.212646850585934 40.18645520019531 -61.212646850585934Q40.36791394042969 -61.212646850585934 40.53980502319336 -61.09568811035156Q40.71169610595703 -60.97872937011718 40.77856079101562 -60.668270629882805L45.326666381835935 -42.42942590332031Q45.374395751953124 -42.19550842285156 45.357734039306635 -42.06414373779297Q45.341072326660154 -41.932779052734375 45.23120764160156 -41.84677905273437Q45.14047827148437 -41.80377905273437 44.99718124389648 -41.882576080322266Q44.85388421630859 -41.961373107910156 44.74401953125 -42.114237792968744Q41.00970941162109 -49.20771295166015 37.587024627685544 -53.15123602294921Q34.16433984375 -57.09475909423828 30.78614840698242 -58.676191436767574Q27.40795697021484 -60.25762377929687 23.84776220703125 -60.25762377929687Q19.254913940429685 -60.25762377929687 16.275001342773436 -57.32351153564453Q13.295088745117187 -54.389399291992184 13.295088745117187 -49.189821655273434Q13.295088745117187 -46.03641571044921 14.508874237060546 -43.40115661621093Q15.722659729003905 -40.765897521972654 18.618610260009763 -38.54375888061523Q21.514560791015622 -36.32162023925781 26.561055908203123 -34.44337268066406Q33.58853771972656 -31.901643310546874 37.63010205078125 -29.039887542724607Q41.671666381835934 -26.17813177490234 43.36994854736328 -22.853161499023436Q45.068230712890625 -19.52819122314453 45.068230712890625 -15.525115356445312Q45.068230712890625 -10.939174804687498 42.82568124389648 -7.215490020751952Q40.58313177490234 -3.491805236816406 36.34399157714844 -1.2967673034667966Q32.10485137939453 0.8982706298828125 26.124646850585936 0.8982706298828125ZM84.09309539794921 -22.323036376953123Q84.09309539794921 -21.96957763671875 83.86143368530273 -21.745118896484374Q83.62977197265624 -21.52066015625 83.1569898071289 -21.52066015625H56.54515484619141V-22.246495117187497H73.74223114013671Q74.43968988037109 -22.246495117187497 74.43968988037109 -23.03941259765625Q74.43968988037109 -30.572564331054686 72.34396871948242 -34.220252441406245Q70.24824755859375 -37.86794055175781 67.2126401977539 -37.86794055175781Q64.65476220703124 -37.86794055175781 62.804673034667964 -36.164057678222655Q60.95458386230469 -34.4601748046875 59.93880990600586 -31.010062561035156Q58.92303594970703 -27.55995031738281 58.92303594970703 -22.347491577148435Q58.92303594970703 -13.484762207031249 62.65468612670898 -9.019420593261717Q66.38633630371093 -4.554078979492187 72.39687756347656 -4.554078979492187Q76.80630657958984 -4.554078979492187 79.87134783935548 -7.026687896728515Q82.9363890991211 -9.499296813964843 83.35736602783203 -13.727920593261718Q83.37650134277344 -13.904649963378905 83.45529837036133 -13.969149963378904Q83.53409539794922 -14.033649963378904 83.57709539794922 -14.033649963378904Q83.68696008300782 -14.033649963378904 83.77532476806641 -13.957217620849608Q83.863689453125 -13.880785278320312 83.84455413818358 -13.641920593261718Q83.5766597290039 -9.486197875976561 81.391189453125 -6.207027954101562Q79.2057191772461 -2.9278580322265624 75.63759051513672 -1.0339290161132813Q72.06946185302735 0.8599999999999999 67.63209228515625 0.8599999999999999Q62.37728704833984 0.8599999999999999 58.398075866699216 -1.48091748046875Q54.418864685058594 -3.8218349609374997 52.183300354003904 -8.088184783935546Q49.947736022949215 -12.354534606933592 49.947736022949215 -18.059128662109373Q49.947736022949215 -24.126422363281247 52.22640927124023 -28.73935470581054Q54.50508251953125 -33.35228704833984 58.65392901611328 -35.949166595458976Q62.80277551269531 -38.54604614257812 68.37749822998046 -38.54604614257812Q73.16854437255859 -38.54604614257812 76.69141726684569 -36.439372894287104Q80.21429016113281 -34.332699645996094 82.15369277954102 -30.66867657470703Q84.09309539794921 -27.004653503417966 84.09309539794921 -22.323036376953123ZM109.71300665283204 -3.9798646850585935V-4.352240905761718L109.26430700683593 -3.946541259765625V-31.241583862304687Q109.26430700683593 -34.49262689208984 107.93301818847655 -36.22801309204101Q106.60172937011718 -37.96339929199218 104.06298669433593 -37.96339929199218Q101.22324401855468 -37.96339929199218 99.84659051513671 -36.56288110351562Q98.46993701171874 -35.16236291503906 98.46993701171874 -33.461280395507806V-30.089669921874997Q98.46993701171874 -28.031488464355466 97.0327819519043 -26.63496871948242Q95.59562689208984 -25.238448974609373 93.35169299316406 -25.238448974609373Q91.7521055908203 -25.238448974609373 90.70398846435546 -26.22701330566406Q89.65587133789063 -27.21557763671875 89.65587133789063 -29.202165039062496Q89.65587133789063 -31.433217834472654 91.42327395629883 -33.58525576782226Q93.19067657470703 -35.73729370117187 96.66571118164063 -37.14166992187499Q100.14074578857422 -38.54604614257812 105.21343878173828 -38.54604614257812Q112.14910205078125 -38.54604614257812 115.56673071289063 -35.6128052368164Q118.984359375 -32.679564331054685 118.984359375 -27.34843566894531V-4.920046142578125Q118.984359375 -3.35225732421875 119.52196829223632 -2.6640394897460937Q120.05957720947265 -1.9758216552734373 120.8576597290039 -1.9758216552734373Q121.61747161865233 -1.9758216552734373 122.23140396118163 -2.451186340332031Q122.84533630371094 -2.9265510253906246 122.97906567382813 -3.9916566162109373Q123.00293035888672 -4.149250671386718 123.06743035888671 -4.2041830139160155Q123.1319303588867 -4.259115356445312 123.19879504394531 -4.259115356445312Q123.30865972900389 -4.259115356445312 123.3540244140625 -4.2041830139160155Q123.3993890991211 -4.149250671386718 123.3993890991211 -3.9916566162109373Q123.3993890991211 -3.213145080566406 122.68548648071288 -2.095798583984375Q121.97158386230468 -0.9784520874023437 120.37436114501952 -0.10706433105468749Q118.77713842773437 0.7643234252929687 116.11288110351562 0.7643234252929687Q112.789 0.7643234252929687 111.25100332641603 -0.5613646850585937Q109.71300665283204 -1.8870527954101561 109.71300665283204 -3.9798646850585935ZM87.51576574707032 -8.332105590820312Q87.51576574707032 -12.941910827636718 91.33974755859376 -15.782166595458984Q95.16372937011718 -18.62242236328125 103.36465661621094 -18.62242236328125Q106.10333984374999 -18.62242236328125 107.86000820922851 -18.08954281616211Q109.61667657470703 -17.556663269042968 111.11760070800781 -16.768257324218748L110.80241259765624 -16.46252795410156Q109.2920297241211 -17.17933984375 107.70972604370118 -17.58569299316406Q106.12742236328126 -17.992046142578122 104.158009765625 -17.992046142578122Q100.79259051513672 -17.992046142578122 98.99528683471681 -15.822692993164061Q97.19798315429688 -13.653339843749999 97.19798315429688 -9.754963623046875Q97.19798315429688 -5.980640197753906 98.92347494506836 -3.9831781311035153Q100.64896673583985 -1.9857160644531249 103.43086779785156 -1.9857160644531249Q105.30009228515624 -1.9857160644531249 107.1262078552246 -2.8578662414550777Q108.95232342529297 -3.730016418457031 110.16665350341796 -5.359940551757812L110.61557098388671 -5.092481811523437Q108.74248846435546 -2.240511535644531 105.45782675170898 -0.7285263977050781Q102.1731650390625 0.7834587402343749 98.37970629882813 0.7834587402343749Q93.54951818847655 0.7834587402343749 90.53264196777343 -1.7677293701171877Q87.51576574707032 -4.31891748046875 87.51576574707032 -8.332105590820312ZM139.39044189453125 -37.87696362304687V-2.283293701171875Q139.39044189453125 -1.8008349609374998 139.67230657958984 -1.4330791931152342Q139.95417126464844 -1.0653234252929686 140.47017126464843 -0.9554587402343749L142.90785449218748 -0.5731881103515625Q143.29958386230467 -0.525458740234375 143.29958386230467 -0.267458740234375Q143.29958386230467 0.0 142.89839575195313 0.0H126.09535314941405Q125.93302972412108 0.0 125.8327326965332 -0.08836468505859374Q125.73243566894531 -0.17672937011718748 125.73243566894531 -0.267458740234375Q125.73243566894531 -0.35818811035156245 125.8565973815918 -0.4489174804687499Q125.98075909423828 -0.5396468505859374 126.18135314941406 -0.5826468505859375L128.68611889648437 -1.0031881103515625Q129.24984826660156 -1.1130527954101561 129.483983581543 -1.4211468505859375Q129.71811889648438 -1.7292409057617186 129.71811889648438 -2.1495643310546875V-33.69351818847656Q129.71811889648438 -33.965706298828124 129.6058895263672 -34.144800354003905Q129.49366015625 -34.32389440917969 129.1832014160156 -34.32389440917969H126.14308251953125Q126.02848846435546 -34.32389440917969 125.92819143676758 -34.41225909423828Q125.82789440917968 -34.50062377929687 125.82789440917968 -34.59135314941406Q125.82789440917968 -34.72035314941406 125.92819143676758 -34.81108251953125Q126.02848846435546 -34.901811889648435 126.22908251953125 -34.944811889648435L138.129689453125 -38.27815173339843Q138.44014819335936 -38.38801641845703 138.60967459106445 -38.39994876098632Q138.77920098876953 -38.41188110351562 138.94152441406248 -38.41188110351562Q139.18984783935545 -38.41188110351562 139.29014486694336 -38.244719390869136Q139.39044189453125 -38.077557678222654 139.39044189453125 -37.87696362304687ZM138.56914819335938 -29.536706298828122 138.15850134277343 -29.899623779296874 139.63941882324218 -31.294541259765623Q143.97725378417968 -35.37437622070312 147.46185604858397 -36.941075866699215Q150.94645831298828 -38.50777551269531 153.95151110839842 -38.50777551269531Q158.19454083251952 -38.50777551269531 160.90386758422852 -35.87971939086914Q163.6131943359375 -33.251663269042965 163.6131943359375 -27.66144543457031V-2.2648118896484375Q163.6131943359375 -1.6722706298828123 163.92150622558592 -1.3281617126464842Q164.22981811523437 -0.9840527954101562 164.80817126464842 -0.87891748046875L166.60558386230468 -0.5826468505859375Q167.00677197265625 -0.48718811035156245 167.00677197265625 -0.267458740234375Q167.00677197265625 0.0 166.5101251220703 0.0H150.4419405517578Q150.0979405517578 0.0 150.0979405517578 -0.267458740234375Q150.0979405517578 -0.525458740234375 150.5279405517578 -0.5731881103515625L152.75578881835938 -0.9077293701171875Q153.5680594482422 -1.0844587402343748 153.82605944824218 -1.5956204528808593Q154.0840594482422 -2.1067821655273438 154.0840594482422 -2.7898349609374997V-26.630316772460937Q154.0840594482422 -30.36360070800781 152.25332342529296 -32.30161889648437Q150.42258740234374 -34.23963708496093 147.545009765625 -34.23963708496093Q145.53776220703125 -34.23963708496093 143.71659384155274 -33.45810736083984Q141.89542547607422 -32.67657763671875 140.00233630371093 -30.883894409179685ZM162.5526002807617 -29.536706298828122 162.14195343017576 -29.899623779296874 163.47968280029295 -31.437729370117186Q166.8055244140625 -35.17378216552734 169.79347982788084 -36.84077883911132Q172.78143524169923 -38.50777551269531 175.97718768310546 -38.50777551269531Q179.9428642578125 -38.50777551269531 182.49630813598634 -35.87971939086914Q185.04975201416016 -33.251663269042965 185.7618345336914 -27.613716064453122L189.0111348876953 -2.3602706298828124Q189.0971348876953 -1.696135314941406 189.41017614746093 -1.318594055175781Q189.72321740722657 -0.9410527954101562 190.30157055664063 -0.8311881103515625L192.05125378417966 -0.53491748046875Q192.22798315429685 -0.5110527954101562 192.31634783935544 -0.44418811035156247Q192.40471252441404 -0.3773234252929687 192.40471252441404 -0.267458740234375Q192.40471252441404 -0.15286468505859374 192.31634783935544 -0.07643234252929687Q192.22798315429685 0.0 192.05125378417966 0.0H175.41031677246093Q175.06631677246094 0.0 175.06631677246094 -0.267458740234375Q175.06631677246094 -0.48718811035156245 175.49631677246094 -0.5731881103515625L177.72416503906248 -0.9077293701171875Q178.5364356689453 -1.0653234252929686 178.83743566894532 -1.60991748046875Q179.1384356689453 -2.1545115356445312 179.0524356689453 -2.8852937011718747L176.2326996459961 -26.630316772460937Q175.7545346069336 -30.36360070800781 174.26339596557617 -32.30161889648437Q172.77225732421874 -34.23963708496093 170.0957094116211 -34.23963708496093Q168.4705146484375 -34.23963708496093 166.96464331054688 -33.441336730957026Q165.45877197265625 -32.64303637695312 163.8426002807617 -31.02708251953125ZM229.83493701171875 -60.199999999999996Q230.7759898071289 -60.199999999999996 231.57611026000976 -60.49390594482421Q232.37623071289062 -60.78781188964843 232.8921217956543 -61.081717834472656Q233.40801287841796 -61.37562377929687 233.56087756347654 -61.37562377929687Q233.67074224853513 -61.37562377929687 233.74717459106444 -61.23952972412109Q233.82360693359374 -61.10343566894531 233.95260693359376 -60.53497692871093L237.70735937499998 -45.46954479980469Q237.7742240600586 -45.19735668945312 237.728859375 -45.08512731933594Q237.6834946899414 -44.97289794921875 237.5736300048828 -44.92516857910156Q237.4829006347656 -44.90130389404297 237.3826036071777 -44.94666857910156Q237.28230657958983 -44.992033264160156 237.12471252441406 -45.192627319335934Q234.0495905151367 -50.65210247802734 231.47326220703124 -53.74959582519531Q228.89693389892577 -56.847089172363276 226.458846496582 -58.122356475830074Q224.02075909423826 -59.39762377929687 221.3364951171875 -59.39762377929687H212.31669921875V-2.3026468505859374Q212.31669921875 -1.7866468505859374 212.8231315612793 -1.5096204528808594Q213.32956390380858 -1.2325940551757812 214.3329698486328 -1.127458740234375L219.5032999267578 -0.5826468505859375Q219.77548803710937 -0.5587821655273437 219.88771740722655 -0.49191748046874995Q219.99994677734375 -0.4250527954101562 219.99994677734375 -0.267458740234375Q219.99994677734375 -0.17672937011718748 219.89964974975584 -0.08836468505859374Q219.79935272216795 0.0 219.59875866699218 0.0H195.66935314941406Q195.46875909423827 0.0 195.36846206665038 -0.08836468505859374Q195.2681650390625 -0.17672937011718748 195.2681650390625 -0.267458740234375Q195.2681650390625 -0.5110527954101562 195.76481188964843 -0.5826468505859375L199.35920141601562 -1.127458740234375Q200.19511889648436 -1.2611881103515623 200.59394232177732 -1.5239174804687499Q200.9927657470703 -1.7866468505859374 200.9927657470703 -2.3026468505859374V-57.89735314941406Q200.9927657470703 -58.41335314941406 200.59394232177732 -58.685650177001946Q200.19511889648436 -58.957947204589836 199.35920141601562 -59.07254125976562L195.76481188964843 -59.61735314941406Q195.2681650390625 -59.68894720458984 195.2681650390625 -59.93254125976562Q195.2681650390625 -60.04240594482421 195.36846206665038 -60.12120297241211Q195.46875909423827 -60.199999999999996 195.66935314941406 -60.199999999999996ZM209.43227685546873 -30.46204614257812H220.82690417480467Q224.51908563232422 -30.46204614257812 226.35077041625976 -32.04078704833984Q228.1824552001953 -33.61952795410156 228.47785449218748 -37.846844726562495Q228.52558386230467 -38.09516815185547 228.59481323242187 -38.17160049438476Q228.66404260253904 -38.24803283691406 228.75477197265624 -38.24803283691406Q229.0652307128906 -38.28630346679687 229.1942307128906 -37.770303466796875L232.67250134277344 -23.143894409179687Q232.75850134277343 -22.924165039062498 232.70356900024413 -22.79043566894531Q232.64863665771483 -22.656706298828123 232.53877197265624 -22.608976928710934Q232.44804260253906 -22.585112243652343 232.33581323242186 -22.601882873535153Q232.22358386230468 -22.618653503417967 232.0421251220703 -22.780976928710935Q230.16045520019532 -25.456 228.70372915649415 -26.955943878173827Q227.24700311279295 -28.455887756347654 225.68739752197263 -29.057778839111325Q224.12779193115233 -29.659669921874997 221.9255510253906 -29.659669921874997H209.43227685546873ZM253.94244189453124 -63.218151733398436V-2.3310230712890623Q253.94244189453124 -1.776970275878906 254.18850955200196 -1.445011535644531Q254.43457720947265 -1.1130527954101561 254.97444189453125 -1.0031881103515625L257.4121251220703 -0.5970527954101562Q257.6748544921875 -0.5731881103515625 257.76321917724607 -0.48482342529296873Q257.85158386230466 -0.396458740234375 257.85158386230466 -0.267458740234375Q257.85158386230466 -0.15286468505859374 257.76321917724607 -0.07643234252929687Q257.6748544921875 0.0 257.4981251220703 0.0H240.59962377929688Q240.4850297241211 0.0 240.3847326965332 -0.07643234252929687Q240.28443566894532 -0.15286468505859374 240.28443566894532 -0.267458740234375Q240.28443566894532 -0.3773234252929687 240.4110709838867 -0.4848234252929687Q240.5377062988281 -0.5923234252929687 240.83870629882813 -0.6353234252929687L243.23811889648437 -1.0031881103515625Q243.80184826660155 -1.1130527954101561 244.03598358154295 -1.445011535644531Q244.27011889648438 -1.776970275878906 244.27011889648438 -2.29275244140625V-59.08243566894531Q244.27011889648438 -59.330759094238275 244.14595718383788 -59.474056121826166Q244.0217954711914 -59.61735314941406 243.71133673095702 -59.61735314941406H240.79054125976563Q240.60435314941407 -59.61735314941406 240.51598846435547 -59.70571783447265Q240.42762377929688 -59.794082519531244 240.42762377929688 -59.90867657470702Q240.42762377929688 -60.06154125976562 240.52792080688477 -60.12840594482421Q240.62821783447265 -60.195270629882806 240.78108251953125 -60.238270629882805L252.6578247680664 -63.54774578857421Q253.03987756347655 -63.65761047363281 253.18553927612305 -63.6814751586914Q253.33120098876952 -63.70533984375 253.4935244140625 -63.70533984375Q253.71798315429686 -63.70533984375 253.83021252441404 -63.562042816162105Q253.94244189453124 -63.41874578857421 253.94244189453124 -63.218151733398436ZM280.5588513793945 -38.50777551269531Q286.17206256103515 -38.50777551269531 290.5169915771484 -35.98518145751953Q294.8619205932617 -33.46258740234375 297.35570275878905 -28.988331634521483Q299.8494849243164 -24.514075866699216 299.8494849243164 -18.67102307128906Q299.8494849243164 -12.899564331054686 297.2960410461426 -8.501740905761718Q294.7425971679687 -4.103917480468749 290.28543878173826 -1.6219587402343747Q285.8282803955078 0.8599999999999999 280.0622045288086 0.8599999999999999Q274.44899334716797 0.8599999999999999 270.1231996459961 -1.610026397705078Q265.7974059448242 -4.080052795410156 263.34189440917964 -8.477876220703124Q260.8863828735351 -12.875699645996093 260.8863828735351 -18.67102307128906Q260.8863828735351 -24.46161712646484 263.3967178344726 -28.926305236816404Q265.90705279541015 -33.390993347167964 270.3474405517578 -35.94938442993164Q274.7878283081055 -38.50777551269531 280.5588513793945 -38.50777551269531ZM282.6462803955078 0.15308251953125Q285.4189405517578 -0.1001881103515625 287.22388287353516 -2.4367029724121094Q289.0288251953125 -4.773217834472656 289.68426419067384 -9.12578549194336Q290.33970318603514 -13.478353149414062 289.623326965332 -19.732052795410155Q288.9069507446289 -26.043158386230466 287.30820318603514 -30.149549468994138Q285.7094556274414 -34.25594055175781 283.3814192504883 -36.159872894287105Q281.05338287353516 -38.0638052368164 278.1229108276367 -37.786669921874996Q275.24016815185547 -37.50953460693359 273.44479348754885 -35.12518145751953Q271.6494188232422 -32.74082830810546 271.0752504577637 -28.402557678222653Q270.5010820922852 -24.064287048339843 271.19359362792966 -17.887128662109372Q271.9099698486328 -11.729105590820312 273.53505569458 -7.613146850585937Q275.1601415405273 -3.497188110351562 277.4977455749512 -1.5454174804687497Q279.835349609375 0.4063531494140625 282.6462803955078 0.15308251953125ZM321.12953771972656 0.0H317.2486171264648Q316.919023071289 0.0 316.72799667358396 -0.13136468505859375Q316.5369702758789 -0.2627293701171875 316.4271055908203 -0.5923234252929687L304.94675909423825 -35.27804614257812Q304.71735314941407 -36.02839929199219 304.30390594482424 -36.34853460693359Q303.89045874023435 -36.668669921874994 303.1878349609375 -36.77853460693359L301.41988775634763 -37.088993347167964Q301.21456433105465 -37.13672271728515 301.13576730346676 -37.213155059814454Q301.0569702758789 -37.28958740234375 301.0569702758789 -37.38031677246094Q301.0569702758789 -37.537910827636715 301.14769964599606 -37.59284317016601Q301.23842901611323 -37.64777551269531 301.37215838623047 -37.64777551269531H319.45465307617184Q319.631382446289 -37.64777551269531 319.7197471313476 -37.58327551269531Q319.8081118164062 -37.518775512695306 319.8081118164062 -37.36118145751953Q319.8081118164062 -37.27045208740234 319.7197471313476 -37.20358740234374Q319.631382446289 -37.13672271728515 319.38778839111325 -37.06985803222656L317.0941646118164 -36.701993347167964Q315.8419995727539 -36.51085803222656 315.54089065551756 -35.82995208740234Q315.23978173828124 -35.14904614257812 315.59818768310544 -34.01642236328125L323.9034418945312 -8.307306579589843L321.9033198852539 -3.1905874023437497L331.3927852783203 -33.64578881835937L332.0947555541992 -33.27297692871093L321.86504925537105 -0.5063234252929687Q321.79818457031246 -0.2627293701171875 321.5975905151367 -0.13136468505859375Q321.3969964599609 0.0 321.12953771972656 0.0ZM345.24541217041013 0.0H341.345356262207Q341.054032836914 0.0 340.84387112426754 -0.16006765747070312Q340.63370941162106 -0.32013531494140623 340.52384472656246 -0.6497293701171875L329.2679569702148 -35.01015173339844Q328.9908216552734 -35.90369299316406 328.61800976562495 -36.30036956787109Q328.24519787597654 -36.697046142578124 327.71457409667966 -36.77831677246093L326.3140559082031 -37.050722717285154Q326.0513265380859 -37.117587402343744 325.9438265380859 -37.194019744873046Q325.8363265380859 -37.27045208740234 325.8363265380859 -37.38031677246094Q325.8363265380859 -37.64777551269531 326.1897852783203 -37.64777551269531H344.0235208740234Q344.3961149291992 -37.64777551269531 344.3961149291992 -37.36118145751953Q344.3961149291992 -37.25131677246093 344.3077502441406 -37.17488442993164Q344.219385559082 -37.09845208740234 343.9566561889648 -37.031587402343746L341.3044086303711 -36.47731677246094Q339.9668970947265 -36.209858032226556 339.7041677246093 -35.70331677246094Q339.44143835449216 -35.19677551269531 339.74243835449215 -34.26518145751953L348.1005869750976 -8.068224060058593L345.89965307617183 -2.769610473632812L354.95868280029293 -31.92361047363281Q355.6277653198242 -34.02158740234375 355.107035949707 -35.21129037475586Q354.5863065795898 -36.40099334716797 352.9376828002929 -36.68285803222656L350.78702929687495 -37.06985803222656Q350.54343524169917 -37.13672271728515 350.4550705566406 -37.20358740234374Q350.366705871582 -37.27045208740234 350.366705871582 -37.38031677246094Q350.366705871582 -37.537910827636715 350.45743524169916 -37.59284317016601Q350.5481646118164 -37.64777551269531 350.701029296875 -37.64777551269531H360.4768709106445Q360.6918709106445 -37.64777551269531 360.7802355957031 -37.58327551269531Q360.8686002807617 -37.518775512695306 360.8686002807617 -37.36118145751953Q360.8686002807617 -37.25131677246093 360.7802355957031 -37.17488442993164Q360.6918709106445 -37.09845208740234 360.44827685546875 -37.031587402343746L359.4210062255859 -36.68285803222656Q358.23119433593746 -36.271993347167964 357.30916793823235 -35.05842568969726Q356.3871415405273 -33.84485803222656 355.75632965087885 -31.81869299316406L346.01919433593747 -0.5828646850585937Q345.93319433593746 -0.28186468505859374 345.7326002807617 -0.14093234252929687Q345.5320062255859 0.0 345.24541217041013 0.0Z" fill="#1A1714"/></g>
<g transform="translate(127.41,287.68)"><path d="M1.9196287393569946 0.0V-16.7333984375H7.807226657867432Q9.751627683639526 -16.7333984375 11.029606223106384 -16.063972979784012Q12.307584762573242 -15.394547522068024 12.937833815813065 -14.215059384703636Q13.568082869052887 -13.035571247339249 13.568082869052887 -11.511604726314545Q13.568082869052887 -9.985213071107864 12.936014965176582 -8.830004721879959Q12.303947061300278 -7.674796372652054 11.026733487844467 -7.030863270163536Q9.749519914388657 -6.386930167675018 7.800268620252609 -6.386930167675018H3.2773926854133606V-8.460701614618301H7.610677003860474Q8.880094230175018 -8.460701614618301 9.658215120434761 -8.828145429491997Q10.436336010694504 -9.195589244365692 10.799666076898575 -9.879016116261482Q11.162996143102646 -10.562442988157272 11.162996143102646 -11.511604726314545Q11.162996143102646 -12.48080226778984 10.799666076898575 -13.185477510094643Q10.436336010694504 -13.890152752399445 9.653206169605255 -14.278844937682152Q8.870076328516006 -14.667537122964859 7.59064120054245 -14.667537122964859H4.312907159328461V0.0ZM11.472281634807587 0.0 7.424462616443634 -7.551407903432846H10.089697420597076L14.209749519824982 0.0ZM21.01810635590553 0.1572265625Q19.74300055170059 0.1572265625 18.77976405584812 -0.3740844875574112Q17.81652755999565 -0.9053955376148224 17.282474010825155 -1.9622721672058105Q16.74842046165466 -3.0191487967967987 16.74842046165466 -4.579606115818024V-12.5556640625H19.039094730854032V-4.831730276346207Q19.039094730854032 -3.438777893781662 19.77123986148834 -2.64987413585186Q20.503384992122648 -1.860970377922058 21.767634585142133 -1.860970377922058Q22.62969507241249 -1.860970377922058 23.309484243035314 -2.237667128443718Q23.98927341365814 -2.614363878965378 24.38418711686134 -3.3390749245882034Q24.779100820064542 -4.063785970211029 24.779100820064542 -5.082177817821503V-12.5556640625H27.079792990922925V0.0H24.87954030895233L24.869839772224424 -3.0616455376148224H25.124820217132566Q24.5578117814064 -1.3348389565944672 23.49742768669128 -0.5888061970472336Q22.437043591976163 0.1572265625 21.01810635590553 0.1572265625ZM32.96918848085403 -7.473486244678497V0.0H30.67851421165466V-12.5556640625H32.86874899196624L32.88846743035316 -9.494018524885178H32.623469083786006Q33.18045961785316 -11.20078930258751 34.230825810909266 -11.956839963793755Q35.28119200396537 -12.712890625 36.74020084667205 -12.712890625Q38.01651921796798 -12.712890625 38.97414047944545 -12.181579574942589Q39.93176174092292 -11.650268524885178 40.46581529009342 -10.598400846123695Q40.99986883926391 -9.546533167362213 40.99986883926391 -7.976057946681976V0.0H38.70919457006454V-7.723933786153793Q38.70919457006454 -9.116886168718338 37.98205839025974 -9.90578992664814Q37.254922210454936 -10.694693684577942 35.99067261743545 -10.694693684577942Q35.12982469725608 -10.694693684577942 34.44442029225826 -10.317996934056282Q33.75901588726043 -9.941300183534622 33.36410218405723 -9.222204372286797Q32.96918848085403 -8.503108561038971 32.96918848085403 -7.473486244678497ZM50.868869392633435 4.527726203203201 51.43639877295494 2.6181393563747406 51.68979239320755 2.685204803943634Q52.32080641245842 2.8460690677165985 52.82981520748138 2.7718584537506104Q53.338824002504346 2.697647839784622 53.72614493823051 2.2866533994674683Q54.11346587395668 1.8756589591503143 54.36939841365814 1.0317869782447815L54.67663302874565 0.061319977045059204L49.896986244678494 -12.5556640625H52.38221618390083L54.94229900693893 -5.295386046171188Q55.361781416893 -4.114079058170319 55.6434667841196 -2.9509890228509903Q55.925152151346204 -1.787898987531662 56.24719804382324 -0.656421035528183H55.49749913668632Q55.81954502916336 -1.787898987531662 56.11775873458385 -2.9572105407714844Q56.415972440004346 -4.126522094011307 56.82907464957237 -5.295386046171188L59.42738178229332 -12.5556640625H61.89531841731071L56.41753527379036 1.7966714203357697Q56.03569933629036 2.798608273267746 55.48952011620998 3.4637612998485565Q54.943340896129605 4.128914326429367 54.200050635695455 4.4565470069646835Q53.456760375261304 4.7841796875 52.49437418437004 4.7841796875Q51.92984777545929 4.7841796875 51.497979222297666 4.7019287049770355Q51.066110669136044 4.619677722454071 50.868869392633435 4.527726203203201ZM69.54965500354766 0.26468098163604736Q67.80624674081801 0.26468098163604736 66.5015632790327 -0.5445190519094467Q65.19687981724738 -1.3537190854549408 64.47267326533793 -2.8130737394094467Q63.74846671342849 -4.272428393363953 63.74846671342849 -6.204069018363953Q63.74846671342849 -8.165763348340988 64.47267326533793 -9.630126953125Q65.19687981724738 -11.094490557909012 66.5015632790327 -11.903690591454506Q67.80624674081801 -12.712890625 69.54965500354766 -12.712890625Q71.30308116793631 -12.712890625 72.61156101346015 -11.903690591454506Q73.92004085898398 -11.094490557909012 74.64424741089343 -9.630126953125Q75.36845396280287 -8.165763348340988 75.36845396280287 -6.204069018363953Q75.36845396280287 -4.272428393363953 74.64424741089343 -2.8130737394094467Q73.92004085898398 -1.3537190854549408 72.61156101346015 -0.5445190519094467Q71.30308116793631 0.26468098163604736 69.54965500354766 0.26468098163604736ZM69.54965500354766 -1.7119713127613068Q70.74473137974738 -1.7119713127613068 71.5215094667673 -2.333024322986603Q72.29828755378722 -2.954077333211899 72.6731654536724 -3.9765544831752777Q73.04804335355757 -4.999031633138657 73.04804335355757 -6.206494152545929Q73.04804335355757 -7.425187140703201 72.6731654536724 -8.45586334168911Q72.29828755378722 -9.486539542675018 71.5215094667673 -10.111388936638832Q70.74473137974738 -10.736238330602646 69.54965500354766 -10.736238330602646Q68.36338396191596 -10.736238330602646 67.59601749300955 -10.111388936638832Q66.82865102410315 -9.486539542675018 66.45377312421797 -8.460872292518616Q66.0788952243328 -7.435205042362213 66.0788952243328 -6.206494152545929Q66.0788952243328 -4.999031633138657 66.45377312421797 -3.9765544831752777Q66.82865102410315 -2.954077333211899 67.59601749300955 -2.333024322986603Q68.36338396191596 -1.7119713127613068 69.54965500354766 -1.7119713127613068ZM82.65002041840553 0.1572265625Q81.37491461420059 0.1572265625 80.41167811834812 -0.3740844875574112Q79.44844162249565 -0.9053955376148224 78.91438807332516 -1.9622721672058105Q78.38033452415466 -3.0191487967967987 78.38033452415466 -4.579606115818024V-12.5556640625H80.67100879335403V-4.831730276346207Q80.67100879335403 -3.438777893781662 81.40315392398834 -2.64987413585186Q82.13529905462265 -1.860970377922058 83.39954864764213 -1.860970377922058Q84.26160913491249 -1.860970377922058 84.94139830553532 -2.237667128443718Q85.62118747615814 -2.614363878965378 86.01610117936134 -3.3390749245882034Q86.41101488256454 -4.063785970211029 86.41101488256454 -5.082177817821503V-12.5556640625H88.71170705342293V0.0H86.51145437145233L86.50175383472443 -3.0616455376148224H86.75673427963257Q86.1897258439064 -1.3348389565944672 85.12934174919128 -0.5888061970472336Q84.06895765447616 0.1572265625 82.65002041840553 0.1572265625ZM92.31042827415466 0.0V-12.5556640625H94.5264443283081V-10.573095619678497H94.6612099533081Q95.00814191746711 -11.568912744522095 95.88520081090927 -12.15091958642006Q96.76225970435142 -12.732926428318024 97.87196834135055 -12.732926428318024Q98.10385311889648 -12.732926428318024 98.410872158885 -12.71805825829506Q98.71789119887352 -12.703190088272095 98.90727923560142 -12.683471649885178V-10.455533504486084Q98.79075900959968 -10.488907545804977 98.41743948805332 -10.534435704350471Q98.04411996650695 -10.579963862895966 97.6458859269619 -10.579963862895966Q96.77291233587265 -10.579963862895966 96.07978492724895 -10.212231129407883Q95.38665751862526 -9.8444983959198 94.99388003098964 -9.20085421204567Q94.60110254335403 -8.55721002817154 94.60110254335403 -7.718245208263397V0.0ZM111.26364148831367 0.2822916507720947Q110.07199923372268 0.2822916507720947 109.10541395521163 -0.16147054731845856Q108.13882867670058 -0.6052327454090118 107.57213760590552 -1.463916003704071Q107.00544653511047 -2.3225992619991302 107.00544653511047 -3.5591633915901184Q107.00544653511047 -4.632438123226166 107.42371637797355 -5.312329083681107Q107.84198622083663 -5.992220044136047 108.54602673327922 -6.3881591856479645Q109.25006724572181 -6.784098327159882 110.11178192174434 -6.9816854149103165Q110.97349659776687 -7.179272502660751 111.86038626408576 -7.286726921796799Q112.97615773653983 -7.42544761300087 113.67579558169841 -7.507698595523834Q114.37543342685699 -7.589949578046799 114.71189988827705 -7.783898964524269Q115.0483663496971 -7.9778483510017395 115.0483663496971 -8.427384465932846V-8.49234214425087Q115.0483663496971 -9.228759706020355 114.76910611665248 -9.738879278302193Q114.48984588360786 -10.24899885058403 113.93496311879157 -10.522196248173714Q113.38008035397529 -10.795393645763397 112.55139390802383 -10.795393645763397Q111.70388422584533 -10.795393645763397 111.09527425146102 -10.531607866287231Q110.48666427707671 -10.267822086811066 110.10617114281654 -9.865474298596382Q109.72567800855636 -9.463126510381699 109.53686780905723 -9.03120106458664L107.36482153511047 -9.645873874425888Q107.81499237990379 -10.781681150197983 108.62147836065292 -11.451078161597252Q109.42796434140205 -12.120475172996521 110.44231578385829 -12.41668289899826Q111.45666722631454 -12.712890625 112.5085798022747 -12.712890625Q113.21387777900695 -12.712890625 114.04717047190665 -12.543697074055672Q114.88046316480636 -12.374503523111343 115.62971447086333 -11.913159102201462Q116.37896577692031 -11.45181468129158 116.8590031979084 -10.584773689508438Q117.33904061889648 -9.717732697725296 117.33904061889648 -8.312019914388657V0.0H115.10994679903983V-1.714306652545929H114.98003144240379Q114.74846402978896 -1.2472167611122131 114.27011522328853 -0.7847900092601776Q113.7917664167881 -0.3223632574081421 113.04781298017501 -0.02003580331802368Q112.30385954356193 0.2822916507720947 111.26364148831367 0.2822916507720947ZM111.7318301615715 -1.6185467541217804Q112.78939841365813 -1.6185467541217804 113.52974259531497 -2.032283693552017Q114.27008677697181 -2.446020632982254 114.66165169751643 -3.1151856184005737Q115.05321661806106 -3.7843506038188934 115.05321661806106 -4.527408838272095V-6.191739767789841Q114.92361862635612 -6.054231643676758 114.53113005733489 -5.9417682737112045Q114.13864148831367 -5.829304903745651 113.63793353414535 -5.743098855018616Q113.13722557997703 -5.65689280629158 112.66535876369475 -5.596944078803062Q112.19349194741248 -5.536995351314545 111.90392489409446 -5.5020913779735565Q111.19577063298225 -5.413460195064545 110.59398846006393 -5.198103755712509Q109.9922062871456 -4.982747316360474 109.63462169146537 -4.578580677509308Q109.27703709578513 -4.174414038658142 109.27703709578513 -3.4981038868427277Q109.27703709578513 -2.879476010799408 109.59576265192031 -2.4627076536417007Q109.91448820805549 -2.0459392964839935 110.4669458386898 -1.832243025302887Q111.0194034693241 -1.6185467541217804 111.7318301615715 -1.6185467541217804ZM126.13949575662612 -12.5556640625V-10.658837616443634H119.45669921874999V-12.5556640625ZM121.3118912243843 -15.54296875H123.60256549358367V-3.340503066778183Q123.60256549358367 -2.5467205941677094 123.92993770182132 -2.179883062839508Q124.25730991005896 -1.8130455315113068 125.01708361148833 -1.8130455315113068Q125.20921414732932 -1.8130455315113068 125.51652210593222 -1.8585736900568008Q125.82383006453513 -1.904101848602295 126.05756213903426 -1.949023723602295L126.48642772078513 -0.07829591631889343Q126.12225934505462 0.044921875 125.69265724360942 0.10289306938648224Q125.26305514216422 0.16086426377296448 124.84694996118544 0.16086426377296448Q123.16639160752295 0.16086426377296448 122.23914141595363 -0.709785982966423Q121.3118912243843 -1.5804362297058105 121.3118912243843 -3.1553874611854553ZM134.18505145215988 0.26468098163604736Q132.34510187411308 0.26468098163604736 131.01097099089623 -0.5396687835454941Q129.67684010767937 -1.3440185487270355 128.95703622305393 -2.7927490174770355Q128.2372323384285 -4.2414794862270355 128.2372323384285 -6.184033215045929Q128.2372323384285 -8.116886407136917 128.9426156541109 -9.586258962750435Q129.64799896979332 -11.055631518363953 130.93902682864666 -11.884261071681976Q132.2300546875 -12.712890625 133.96254984641075 -12.712890625Q135.0081391146183 -12.712890625 135.9989757349491 -12.369466125965118Q136.98981235527992 -12.026041626930237 137.7845918198824 -11.279532819986343Q138.57937128448486 -10.53302401304245 139.0474132707119 -9.332576423883438Q139.51545525693894 -8.132128834724426 139.51545525693894 -6.416870087385178V-5.553971290588379H129.60977466011047V-7.343457102775574H138.315756182909L137.24628983044624 -6.726676523685455Q137.24628983044624 -7.911100268363953 136.87642088139057 -8.824015229940414Q136.5065519323349 -9.736930191516876 135.77804450297356 -10.25250631570816Q135.0495370736122 -10.768082439899445 133.9674001147747 -10.768082439899445Q132.8852631559372 -10.768082439899445 132.1166841199398 -10.242488414049149Q131.34810508394241 -9.716894388198853 130.9431734790802 -8.864086836576462Q130.538241874218 -8.011279284954071 130.538241874218 -7.017195671796799V-5.811376869678497Q130.538241874218 -4.479427099227905 130.99750697219372 -3.5540691018104553Q131.45677207016945 -2.6287111043930054 132.28529983365536 -2.1544191539287567Q133.11382759714127 -1.680127203464508 134.2047698905468 -1.680127203464508Q134.9156666507721 -1.680127203464508 135.49725433790684 -1.8844118565320969Q136.07884202504158 -2.0886965095996857 136.49864179992676 -2.500455915927887Q136.91844157481194 -2.9122153222560883 137.14336831474304 -3.520825296640396L139.3157319536209 -2.9769125282764435Q139.02131463193894 -2.014152079820633 138.31411246562004 -1.2838826924562454Q137.60691029930115 -0.5536133050918579 136.55870876812935 -0.14446616172790527Q135.51050723695755 0.26468098163604736 134.18505145215988 0.26468098163604736ZM144.76670801210403 -16.7333984375V0.0H142.47603374290466V-16.7333984375ZM148.36511186790466 0.0V-12.5556640625H150.65578613710403V0.0ZM149.51925433707237 -14.527172714471817Q148.90891085100174 -14.527172714471817 148.46791959834098 -14.943342470029403Q148.02692834568023 -15.359512225586988 148.02692834568023 -15.942149883367605Q148.02692834568023 -16.536678105592728 148.46791959834098 -16.947168052196503Q148.90891085100174 -17.357657998800278 149.51925433707237 -17.357657998800278Q150.13926927706174 -17.357657998800278 150.58043375359262 -16.947297970099108Q151.02159823012352 -16.536937941397937 151.02159823012352 -15.942213262120884Q151.02159823012352 -15.359383076429367 150.58043375359262 -14.943277895450592Q150.13926927706174 -14.527172714471817 149.51925433707237 -14.527172714471817ZM159.61253973340987 0.26468098163604736Q157.77259015536308 0.26468098163604736 156.43845927214622 -0.5396687835454941Q155.10432838892936 -1.3440185487270355 154.38452450430393 -2.7927490174770355Q153.6647206196785 -4.2414794862270355 153.6647206196785 -6.184033215045929Q153.6647206196785 -8.116886407136917 154.3701039353609 -9.586258962750435Q155.0754872510433 -11.055631518363953 156.36651510989665 -11.884261071681976Q157.65754296875 -12.712890625 159.39003812766074 -12.712890625Q160.4356273958683 -12.712890625 161.4264640161991 -12.369466125965118Q162.41730063652992 -12.026041626930237 163.2120801011324 -11.279532819986343Q164.00685956573486 -10.53302401304245 164.4749015519619 -9.332576423883438Q164.94294353818893 -8.132128834724426 164.94294353818893 -6.416870087385178V-5.553971290588379H155.03726294136047V-7.343457102775574H163.743244464159L162.67377811169624 -6.726676523685455Q162.67377811169624 -7.911100268363953 162.30390916264057 -8.824015229940414Q161.9340402135849 -9.736930191516876 161.20553278422355 -10.25250631570816Q160.4770253548622 -10.768082439899445 159.3948883960247 -10.768082439899445Q158.3127514371872 -10.768082439899445 157.5441724011898 -10.242488414049149Q156.7755933651924 -9.716894388198853 156.3706617603302 -8.864086836576462Q155.96573015546798 -8.011279284954071 155.96573015546798 -7.017195671796799V-5.811376869678497Q155.96573015546798 -4.479427099227905 156.4249952534437 -3.5540691018104553Q156.88426035141944 -2.6287111043930054 157.71278811490535 -2.1544191539287567Q158.54131587839126 -1.680127203464508 159.6322581717968 -1.680127203464508Q160.3431549320221 -1.680127203464508 160.92474261915683 -1.8844118565320969Q161.50633030629157 -2.0886965095996857 161.92613008117675 -2.500455915927887Q162.34592985606193 -2.9122153222560883 162.57085659599304 -3.520825296640396L164.7432202348709 -2.9769125282764435Q164.44880291318893 -2.014152079820633 163.74160074687003 -1.2838826924562454Q163.03439858055114 -0.5536133050918579 161.98619704937934 -0.14446616172790527Q160.93799551820754 0.26468098163604736 159.61253973340987 0.26468098163604736ZM167.90352202415465 0.0V-12.5556640625H170.1195380783081V-10.573095619678497H170.2543037033081Q170.6012356674671 -11.568912744522095 171.47829456090926 -12.15091958642006Q172.35535345435142 -12.732926428318024 173.46506209135055 -12.732926428318024Q173.69694686889648 -12.732926428318024 174.003965908885 -12.71805825829506Q174.3109849488735 -12.703190088272095 174.50037298560142 -12.683471649885178V-10.455533504486084Q174.38385275959968 -10.488907545804977 174.0105332380533 -10.534435704350471Q173.63721371650695 -10.579963862895966 173.2389796769619 -10.579963862895966Q172.36600608587264 -10.579963862895966 171.67287867724895 -10.212231129407883Q170.97975126862525 -9.8444983959198 170.58697378098964 -9.20085421204567Q170.19419629335403 -8.55721002817154 170.19419629335403 -7.718245208263397V0.0ZM176.60379814529418 4.112980276346207 177.59207939529418 -2.374739646911621H180.11654263162612L178.30153601789473 4.112980276346207ZM196.4360806877613 0.2574055790901184Q195.27960287880896 0.2574055790901184 194.55386639487742 -0.13977457582950592Q193.82812991094588 -0.5369547307491302 193.42536296796797 -1.056746393442154Q193.02259602499007 -1.5765380561351776 192.8043668503761 -1.9562093317508698H192.591883146286V0.0H190.36616655540465V-16.7333984375H192.65684082460402V-10.524796515703201H192.8043668503761Q193.02138345789908 -10.894449889659882 193.41291993212698 -11.408467635512352Q193.8044564063549 -11.922485381364822 194.5213875557184 -12.317688003182411Q195.23831870508192 -12.712890625 196.43091305446623 -12.712890625Q197.96801423382757 -12.712890625 199.15557118606566 -11.94009605050087Q200.34312813830374 -11.16730147600174 201.0256029154062 -9.716593474149704Q201.70807769250868 -8.265885472297668 201.70807769250868 -6.246565759181976Q201.70807769250868 -4.229353815317154 201.03424956750868 -2.7730305790901184Q200.36042144250868 -1.3167073428630829 199.1722582067251 -0.5296508818864822Q197.98409497094153 0.2574055790901184 196.4360806877613 0.2574055790901184ZM195.98613741350172 -1.728947252035141Q197.1059208447933 -1.728947252035141 197.85886674475668 -2.333154559135437Q198.61181264472006 -2.937361866235733 198.99230577898024 -3.9662192165851593Q199.37279891324042 -4.995076566934586 199.37279891324042 -6.2666015625Q199.37279891324042 -7.529321223497391 198.99731472980974 -8.538142770528793Q198.62183054637907 -9.546964317560196 197.8688846464157 -10.136751055717468Q197.11593874645231 -10.72653779387474 195.98613741350172 -10.72653779387474Q194.88760235261915 -10.72653779387474 194.1378465528488 -10.166804760694504Q193.38809075307844 -9.607071727514267 193.00638505172728 -8.608268082141876Q192.6246793503761 -7.6094644367694855 192.6246793503761 -6.2666015625Q192.6246793503761 -4.926163822412491 193.01139400255678 -3.9029217064380646Q193.39810865473746 -2.8796795904636383 194.15287340533732 -2.3043134212493896Q194.90763815593718 -1.728947252035141 195.98613741350172 -1.728947252035141ZM210.07013738965986 0.26468098163604736Q208.23018781161306 0.26468098163604736 206.8960569283962 -0.5396687835454941Q205.56192604517935 -1.3440185487270355 204.8421221605539 -2.7927490174770355Q204.12231827592848 -4.2414794862270355 204.12231827592848 -6.184033215045929Q204.12231827592848 -8.116886407136917 204.8277015916109 -9.586258962750435Q205.5330849072933 -11.055631518363953 206.82411276614664 -11.884261071681976Q208.11514062499998 -12.712890625 209.84763578391073 -12.712890625Q210.89322505211828 -12.712890625 211.8840616724491 -12.369466125965118Q212.8748982927799 -12.026041626930237 213.66967775738237 -11.279532819986343Q214.46445722198484 -10.53302401304245 214.93249920821188 -9.332576423883438Q215.40054119443892 -8.132128834724426 215.40054119443892 -6.416870087385178V-5.553971290588379H205.49486059761045V-7.343457102775574H214.200842120409L213.13137576794622 -6.726676523685455Q213.13137576794622 -7.911100268363953 212.76150681889055 -8.824015229940414Q212.39163786983488 -9.736930191516876 211.66313044047354 -10.25250631570816Q210.9346230111122 -10.768082439899445 209.85248605227468 -10.768082439899445Q208.77034909343718 -10.768082439899445 208.00177005743978 -10.242488414049149Q207.2331910214424 -9.716894388198853 206.82825941658018 -8.864086836576462Q206.42332781171797 -8.011279284954071 206.42332781171797 -7.017195671796799V-5.811376869678497Q206.42332781171797 -4.479427099227905 206.8825929096937 -3.5540691018104553Q207.34185800766943 -2.6287111043930054 208.17038577115534 -2.1544191539287567Q208.99891353464125 -1.680127203464508 210.08985582804678 -1.680127203464508Q210.80075258827208 -1.680127203464508 211.38234027540682 -1.8844118565320969Q211.96392796254156 -2.0886965095996857 212.38372773742674 -2.500455915927887Q212.80352751231192 -2.9122153222560883 213.02845425224302 -3.520825296640396L215.2008178911209 -2.9769125282764435Q214.90640056943892 -2.014152079820633 214.19919840312002 -1.2838826924562454Q213.49199623680113 -0.5536133050918579 212.44379470562933 -0.14446616172790527Q211.39559317445753 0.26468098163604736 210.07013738965986 0.26468098163604736ZM221.87504383206365 0.2822916507720947Q220.68340157747267 0.2822916507720947 219.71681629896162 -0.16147054731845856Q218.75023102045057 -0.6052327454090118 218.1835399496555 -1.463916003704071Q217.61684887886045 -2.3225992619991302 217.61684887886045 -3.5591633915901184Q217.61684887886045 -4.632438123226166 218.03511872172353 -5.312329083681107Q218.45338856458662 -5.992220044136047 219.1574290770292 -6.3881591856479645Q219.8614695894718 -6.784098327159882 220.72318426549433 -6.9816854149103165Q221.58489894151685 -7.179272502660751 222.47178860783575 -7.286726921796799Q223.58756008028982 -7.42544761300087 224.2871979254484 -7.507698595523834Q224.98683577060697 -7.589949578046799 225.32330223202703 -7.783898964524269Q225.6597686934471 -7.9778483510017395 225.6597686934471 -8.427384465932846V-8.49234214425087Q225.6597686934471 -9.228759706020355 225.38050846040247 -9.738879278302193Q225.10124822735784 -10.24899885058403 224.54636546254156 -10.522196248173714Q223.99148269772527 -10.795393645763397 223.1627962517738 -10.795393645763397Q222.31528656959532 -10.795393645763397 221.706676595211 -10.531607866287231Q221.0980666208267 -10.267822086811066 220.71757348656652 -9.865474298596382Q220.33708035230634 -9.463126510381699 220.1482701528072 -9.03120106458664L217.97622387886045 -9.645873874425888Q218.42639472365377 -10.781681150197983 219.2328807044029 -11.451078161597252Q220.03936668515203 -12.120475172996521 221.05371812760828 -12.41668289899826Q222.06806957006452 -12.712890625 223.11998214602468 -12.712890625Q223.82528012275694 -12.712890625 224.65857281565664 -12.543697074055672Q225.49186550855634 -12.374503523111343 226.24111681461332 -11.913159102201462Q226.9903681206703 -11.45181468129158 227.47040554165838 -10.584773689508438Q227.95044296264646 -9.717732697725296 227.95044296264646 -8.312019914388657V0.0H225.72134914278982V-1.714306652545929H225.59143378615377Q225.35986637353895 -1.2472167611122131 224.88151756703851 -0.7847900092601776Q224.40316876053808 -0.3223632574081421 223.659215323925 -0.02003580331802368Q222.9152618873119 0.2822916507720947 221.87504383206365 0.2822916507720947ZM222.34323250532148 -1.6185467541217804Q223.40080075740812 -1.6185467541217804 224.14114493906496 -2.032283693552017Q224.8814891207218 -2.446020632982254 225.27305404126642 -3.1151856184005737Q225.66461896181104 -3.7843506038188934 225.66461896181104 -4.527408838272095V-6.191739767789841Q225.5350209701061 -6.054231643676758 225.14253240108488 -5.9417682737112045Q224.75004383206365 -5.829304903745651 224.24933587789533 -5.743098855018616Q223.748627923727 -5.65689280629158 223.27676110744474 -5.596944078803062Q222.80489429116247 -5.536995351314545 222.51532723784445 -5.5020913779735565Q221.80717297673223 -5.413460195064545 221.2053908038139 -5.198103755712509Q220.6036086308956 -4.982747316360474 220.24602403521536 -4.578580677509308Q219.88843943953512 -4.174414038658142 219.88843943953512 -3.4981038868427277Q219.88843943953512 -2.879476010799408 220.2071649956703 -2.4627076536417007Q220.52589055180547 -2.0459392964839935 221.07834818243978 -1.832243025302887Q221.6308058130741 -1.6185467541217804 222.34323250532148 -1.6185467541217804ZM235.8196883871555 0.1572265625Q234.54458258295057 0.1572265625 233.5813460870981 -0.3740844875574112Q232.61810959124563 -0.9053955376148224 232.08405604207513 -1.9622721672058105Q231.55000249290464 -3.0191487967967987 231.55000249290464 -4.579606115818024V-12.5556640625H233.840676762104V-4.831730276346207Q233.840676762104 -3.438777893781662 234.57282189273832 -2.64987413585186Q235.30496702337263 -1.860970377922058 236.5692166163921 -1.860970377922058Q237.43127710366247 -1.860970377922058 238.1110662742853 -2.237667128443718Q238.79085544490812 -2.614363878965378 239.18576914811132 -3.3390749245882034Q239.58068285131452 -4.063785970211029 239.58068285131452 -5.082177817821503V-12.5556640625H241.8813750221729V0.0H239.6811223402023L239.6714218034744 -3.0616455376148224H239.92640224838254Q239.35939381265638 -1.3348389565944672 238.29900971794126 -0.5888061970472336Q237.23862562322614 0.1572265625 235.8196883871555 0.1572265625ZM250.6809918503761 -12.5556640625V-10.658837616443634H243.99819531249997V-12.5556640625ZM245.85338731813428 -15.54296875H248.14406158733365V-3.340503066778183Q248.14406158733365 -2.5467205941677094 248.4714337955713 -2.179883062839508Q248.79880600380895 -1.8130455315113068 249.55857970523832 -1.8130455315113068Q249.7507102410793 -1.8130455315113068 250.0580181996822 -1.8585736900568008Q250.36532615828511 -1.904101848602295 250.59905823278424 -1.949023723602295L251.02792381453511 -0.07829591631889343Q250.6637554388046 0.044921875 250.2341533373594 0.10289306938648224Q249.8045512359142 0.16086426377296448 249.38844605493543 0.16086426377296448Q247.70788770127294 0.16086426377296448 246.7806375097036 -0.709785982966423Q245.85338731813428 -1.5804362297058105 245.85338731813428 -3.1553874611854553ZM253.36819780540463 0.0V-12.5556640625H255.658872074604V0.0ZM254.52234027457234 -14.527172714471817Q253.9119967885017 -14.527172714471817 253.47100553584096 -14.943342470029403Q253.0300142831802 -15.359512225586988 253.0300142831802 -15.942149883367605Q253.0300142831802 -16.536678105592728 253.47100553584096 -16.947168052196503Q253.9119967885017 -17.357657998800278 254.52234027457234 -17.357657998800278Q255.14235521456172 -17.357657998800278 255.5835196910926 -16.947297970099108Q256.0246841676235 -16.536937941397937 256.0246841676235 -15.942213262120884Q256.0246841676235 -15.359383076429367 255.5835196910926 -14.943277895450592Q255.14235521456172 -14.527172714471817 254.52234027457234 -14.527172714471817ZM265.3262948606014 -12.5556640625V-10.658837616443634H257.775375V-12.5556640625ZM260.1951503071785 0.0V-14.087133556604385Q260.1951503071785 -15.2262042760849 260.71038062012195 -15.987711489200592Q261.2256109330654 -16.749218702316284 262.0660487923622 -17.134374976158142Q262.906486651659 -17.51953125 263.8658698711395 -17.51953125Q264.60038324332237 -17.51953125 265.1090462270975 -17.399792477488518Q265.61770921087265 -17.280053704977036 265.8592945251465 -17.180192053318024L265.2880705509186 -15.28821587562561Q265.12114345169067 -15.345580786466599 264.86118250226974 -15.410538464784622Q264.6012215528488 -15.475496143102646 264.19265224671364 -15.475496143102646Q263.2932626519203 -15.475496143102646 262.8883310470581 -15.020633712410927Q262.4833994421959 -14.565771281719208 262.4833994421959 -13.705818563699722V0.0ZM272.34719229340556 0.1572265625Q271.0720864892006 0.1572265625 270.10884999334814 -0.3740844875574112Q269.1456134974957 -0.9053955376148224 268.6115599483252 -1.9622721672058105Q268.0775063991547 -3.0191487967967987 268.0775063991547 -4.579606115818024V-12.5556640625H270.36818066835406V-4.831730276346207Q270.36818066835406 -3.438777893781662 271.10032579898837 -2.64987413585186Q271.8324709296227 -1.860970377922058 273.09672052264216 -1.860970377922058Q273.9587810099125 -1.860970377922058 274.63857018053534 -2.237667128443718Q275.31835935115816 -2.614363878965378 275.71327305436137 -3.3390749245882034Q276.10818675756457 -4.063785970211029 276.10818675756457 -5.082177817821503V-12.5556640625H278.40887892842295V0.0H276.20862624645235L276.19892570972445 -3.0616455376148224H276.4539061546326Q275.8868977189064 -1.3348389565944672 274.8265136241913 -0.5888061970472336Q273.7661295294762 0.1572265625 272.34719229340556 0.1572265625ZM284.2982744183541 -16.7333984375V0.0H282.0076001491547V-16.7333984375ZM290.1873525433541 -16.7333984375V0.0H287.89667827415474V-16.7333984375ZM293.60664673638354 4.527726203203201 294.17417611670504 2.6181393563747406 294.42756973695765 2.685204803943634Q295.0585837562085 2.8460690677165985 295.5675925512315 2.7718584537506104Q296.07660134625445 2.697647839784622 296.4639222819806 2.2866533994674683Q296.8512432177068 1.8756589591503143 297.10717575740824 1.0317869782447815L297.41441037249575 0.061319977045059204L292.6347635884286 -12.5556640625H295.11999352765093L297.68007635068903 -5.295386046171188Q298.0995587606431 -4.114079058170319 298.3812441278697 -2.9509890228509903Q298.6629294950963 -1.787898987531662 298.98497538757334 -0.656421035528183H298.2352764804364Q298.55732237291346 -1.787898987531662 298.85553607833396 -2.9572105407714844Q299.15374978375445 -4.126522094011307 299.5668519933225 -5.295386046171188L302.1651591260434 -12.5556640625H304.6330957610608L299.15531261754046 1.7966714203357697Q298.77347668004046 2.798608273267746 298.2272974599601 3.4637612998485565Q297.6811182398797 4.128914326429367 296.93782797944556 4.4565470069646835Q296.1945377190114 4.7841796875 295.23215152812014 4.7841796875Q294.6676251192094 4.7841796875 294.23575656604777 4.7019287049770355Q293.80388801288615 4.619677722454071 293.60664673638354 4.527726203203201Z" fill="#2E3A8C"/></g>
</svg>